<svg width="20" height="20" viewBox="0 0 20 20" fill="none" xmlns="http://www.w3.org/2000/svg">
<g clip-path="url(#clip0)">
<path d="M0 17.8334C0 18.5834 0.555558 19.3056 1.33336 19.3056H18.6667C19.4445 19.3056 20.0001 18.5834 20.0001 17.8334V5.41675H0V17.8334ZM15.7501 7.58342C16.962 7.58342 17.9445 8.56591 17.9445 9.77784C17.9445 10.9898 16.962 11.9723 15.7501 11.9723C14.5381 11.9723 13.5556 10.9898 13.5556 9.77784C13.5556 8.56586 14.5381 7.58342 15.7501 7.58342ZM13.5556 14.639C13.5556 13.427 14.5381 12.4446 15.75 12.4446C16.9772 12.4293 17.9844 13.4118 17.9997 14.639C18.0149 15.8662 17.0324 16.8734 15.8053 16.8886C14.5781 16.9039 13.5708 15.9214 13.5556 14.6942C13.5554 14.6758 13.5554 14.6574 13.5556 14.639ZM10 7.58342C11.212 7.58342 12.1945 8.56591 12.1945 9.77784C12.1945 10.9898 11.212 11.9723 10 11.9723C8.78812 11.9723 7.80562 10.9898 7.80562 9.77784C7.80557 8.56586 8.78807 7.58342 10 7.58342ZM7.80557 14.639C7.80557 13.427 8.78807 12.4446 9.99999 12.4446C11.2272 12.4293 12.2344 13.4118 12.2497 14.639C12.2649 15.8662 11.2824 16.8734 10.0552 16.8886C8.82805 16.9039 7.82083 15.9214 7.80557 14.6942C7.80535 14.6758 7.80535 14.6574 7.80557 14.639ZM4.19409 7.58342C4.21276 7.58315 4.23137 7.58315 4.25003 7.58342C5.462 7.58342 6.44445 8.56591 6.44445 9.77784C6.44445 10.9898 5.46195 11.9723 4.25003 11.9723C3.03805 11.9723 2.0556 10.9898 2.0556 9.77784C2.04013 8.58133 2.99759 7.59883 4.19409 7.58342ZM2.05555 14.639C2.05555 13.427 3.03805 12.4446 4.24997 12.4446C5.46195 12.4446 6.4444 13.4271 6.4444 14.639C6.44477 15.8509 5.46259 16.8337 4.25061 16.8341C3.03864 16.8345 2.05587 15.8523 2.0555 14.6403L2.05555 14.639Z" fill="#58585B"/>
<path d="M18.6667 0.694458H15.8333V1.94445C15.8333 2.25128 15.5846 2.50001 15.2778 2.50001C14.971 2.50001 14.7222 2.25128 14.7222 1.94445V0.694458H5.27777V1.94445C5.27777 2.25128 5.02904 2.50001 4.72221 2.50001C4.41537 2.50001 4.16665 2.25128 4.16665 1.94445V0.694458H1.33331C0.555557 0.694458 0 1.11114 0 1.86113V4.30561H20V1.86113C20 1.11114 19.4444 0.694458 18.6667 0.694458Z" fill="#58585B"/>
</g>
<defs>
<clipPath id="clip0">
<rect width="20" height="20" fill="white"/>
</clipPath>
</defs>
</svg>
